<svg width="16" height="16" viewBox="0 0 16 16" fill="none" xmlns="http://www.w3.org/2000/svg">
<circle cx="8" cy="8" r="8" fill="black"/>
<path d="M7.99923 8.38101C8.20166 8.38101 8.36576 8.21658 8.36576 8.01375C8.36576 7.81091 8.20166 7.64648 7.99923 7.64648C7.79679 7.64648 7.63269 7.81091 7.63269 8.01375C7.63269 8.21658 7.79679 8.38101 7.99923 8.38101Z" fill="#F8BF1E"/>
<path d="M10.9218 8.38101C11.1243 8.38101 11.2884 8.21658 11.2884 8.01375C11.2884 7.81091 11.1243 7.64648 10.9218 7.64648C10.7194 7.64648 10.5553 7.81091 10.5553 8.01375C10.5553 8.21658 10.7194 8.38101 10.9218 8.38101Z" fill="#F8BF1E"/>
<path d="M10.9218 11.3143C11.1243 11.3143 11.2884 11.1499 11.2884 10.947C11.2884 10.7442 11.1243 10.5798 10.9218 10.5798C10.7194 10.5798 10.5553 10.7442 10.5553 10.947C10.5553 11.1499 10.7194 11.3143 10.9218 11.3143Z" fill="#F8BF1E"/>
<path d="M11.9974 5.01283C11.9588 4.47644 11.5296 4.04152 10.9942 4.00286C10.6518 3.9787 10.3432 4.10917 10.1261 4.33146C9.96215 4.5006 9.7403 4.60208 9.50398 4.60208H9.41717C9.17603 4.60208 8.94935 4.5006 8.78056 4.32663C8.58282 4.12367 8.30792 4.00286 8.00408 4.00286C7.70024 4.00286 7.42534 4.1285 7.22761 4.32663C7.05881 4.5006 6.83213 4.60208 6.59099 4.60208H6.509C6.27269 4.60208 6.04601 4.51026 5.88204 4.34113C5.84828 4.3073 5.81452 4.27348 5.78076 4.24448C5.37082 3.91105 4.76796 3.92071 4.37249 4.27348C3.89503 4.69389 3.87574 5.42842 4.31944 5.873C4.32426 5.87783 4.32909 5.88266 4.33391 5.8875C4.50753 6.0518 4.59917 6.28375 4.59917 6.52054V6.60269C4.59917 6.84431 4.49789 7.07143 4.32426 7.24057C4.12171 7.43869 4.00114 7.71414 4.00114 8.01858C4.00114 8.32302 4.12653 8.59847 4.32426 8.7966C4.49789 8.96573 4.59917 9.19285 4.59917 9.43447V9.54562C4.59917 9.78241 4.49789 10.0047 4.32909 10.169C4.11688 10.3768 3.98667 10.6716 4.00114 10.9953C4.02525 11.5656 4.48824 12.0246 5.05251 12.044C5.38046 12.0536 5.67466 11.9232 5.88204 11.7057C6.04601 11.5366 6.26786 11.4303 6.50418 11.4303H6.59582C6.83213 11.4303 7.05398 11.5317 7.21796 11.7057C7.43499 11.9328 7.74847 12.0633 8.09089 12.0391C8.62622 12.0005 9.06028 11.5656 9.09886 11.0243C9.14227 10.3816 8.64069 9.85006 8.0089 9.85006C7.70989 9.85006 7.43499 9.97087 7.23725 10.169C7.06845 10.3381 6.84178 10.4396 6.60546 10.4396H6.50418C6.26786 10.4396 6.03637 10.3478 5.86757 10.1738C5.86275 10.169 5.86275 10.169 5.85792 10.1642C5.6843 9.99503 5.58302 9.76791 5.58302 9.52629V9.42964C5.58302 9.18802 5.6843 8.9609 5.85792 8.79176C6.06048 8.59364 6.18105 8.31819 6.18105 8.01375C6.18105 7.70931 6.05566 7.43386 5.85792 7.23573C5.6843 7.0666 5.58302 6.83948 5.58302 6.59786V6.51087C5.58302 6.26926 5.6843 6.04213 5.8531 5.873C5.85792 5.86817 5.85792 5.86817 5.86275 5.86333C5.86757 5.8585 5.86757 5.8585 5.87239 5.85367C6.04119 5.68454 6.26786 5.58305 6.509 5.58305H6.59582C6.83696 5.58305 7.06363 5.68454 7.23243 5.8585C7.43016 6.06146 7.70507 6.18227 8.0089 6.18227C8.31274 6.18227 8.58764 6.05663 8.78538 5.8585C8.95418 5.68454 9.18085 5.58305 9.42199 5.58305H9.49916C9.7403 5.58305 9.96697 5.68454 10.1358 5.8585C10.3335 6.06146 10.6084 6.18227 10.9122 6.18227C11.5392 6.1871 12.0408 5.65554 11.9974 5.01283Z" fill="#F8BF1E"/>
</svg>
